<?xml version="1.0" encoding="utf-8"?>
<!-- Generator: Adobe Illustrator 16.0.0, SVG Export Plug-In . SVG Version: 6.00 Build 0)  -->
<!DOCTYPE svg PUBLIC "-//W3C//DTD SVG 1.1//EN" "http://www.w3.org/Graphics/SVG/1.1/DTD/svg11.dtd">
<svg version="1.1" id="圖層_2" xmlns="http://www.w3.org/2000/svg" xmlns:xlink="http://www.w3.org/1999/xlink" x="0px" y="0px"
	 width="960px" height="680px" viewBox="0 0 960 680" enable-background="new 0 0 960 680" xml:space="preserve">
<path fill="#FFFFFF" d="M960,0v665c0,5.522-8.955,10-20,10c-11.047,0-20-4.478-20-10c0,5.522-8.955,10-20,10
	c-11.047,0-20-4.478-20-10c0,5.522-8.955,10-20,10c-11.047,0-20-4.478-20-10c0,5.522-8.955,10-20,10c-11.047,0-20-4.478-20-10
	c0,5.522-8.955,10-20,10c-11.047,0-20-4.478-20-10c0,5.522-8.955,10-20,10c-11.047,0-20-4.478-20-10c0,5.522-8.955,10-20,10
	c-11.047,0-20-4.478-20-10c0,5.522-8.955,10-20,10c-11.047,0-20-4.478-20-10c0,5.522-8.955,10-20,10c-11.047,0-20-4.478-20-10
	c0,5.522-8.955,10-20,10c-11.047,0-20-4.478-20-10c0,5.522-8.955,10-20,10c-11.047,0-20-4.478-20-10c0,5.522-8.955,10-20,10
	c-11.047,0-20-4.478-20-10c0,5.522-8.954,10-20,10s-20-4.478-20-10c0,5.522-8.954,10-20,10s-20-4.478-20-10c0,5.522-8.954,10-20,10
	s-20-4.478-20-10c0,5.522-8.954,10-20,10s-20-4.478-20-10c0,5.522-8.954,10-20,10s-20-4.478-20-10c0,5.522-8.954,10-20,10
	s-20-4.478-20-10c0,5.522-8.954,10-20,10s-20-4.478-20-10c0,5.522-8.954,10-20,10s-20-4.478-20-10c0,5.522-8.954,10-20,10
	s-20-4.478-20-10c0,5.522-8.954,10-20,10s-20-4.478-20-10c0,5.522-8.954,10-20,10s-20-4.478-20-10c0,5.522-8.954,10-20,10
	s-20-4.478-20-10V0H960z M960,0H0v680h960V0z"/>
</svg>
